<svg xmlns="http://www.w3.org/2000/svg" viewBox="0 0 200 120">
  <!-- Letter D -->
  <path
    d="M20 10 
       V110 
       H60 
       C80 110 90 90 90 60
       C90 30 80 10 60 10
       Z
       M40 30
       H55
       C65 30 70 40 70 60
       C70 80 65 90 55 90
       H40
       Z"
    fill="black"
  />
  
  <!-- Letter B -->
  <path
    d="M110 10
       V110
       H150
       C170 110 180 95 180 80
       C180 70 175 60 165 55
       C172 50 175 40 175 30
       C175 15 165 10 150 10
       Z
       M130 30
       H145
       C150 30 155 32 155 40
       C155 48 150 50 145 50
       H130
       Z
       M130 70
       H145
       C150 70 155 72 155 80
       C155 88 150 90 145 90
       H130
       Z"
    fill="black"
  />
</svg>